<?xml version="1.0" encoding="utf-8"?>
<!-- Generator: Adobe Illustrator 16.0.0, SVG Export Plug-In . SVG Version: 6.00 Build 0)  -->
<!DOCTYPE svg PUBLIC "-//W3C//DTD SVG 1.1//EN" "http://www.w3.org/Graphics/SVG/1.1/DTD/svg11.dtd">
<svg version="1.1" id="Layer_1" xmlns:sketch="http://www.bohemiancoding.com/sketch/ns"
	 xmlns="http://www.w3.org/2000/svg" xmlns:xlink="http://www.w3.org/1999/xlink" x="0px" y="0px" width="256px" height="64px"
	 viewBox="0 0 256 64" enable-background="new 0 0 256 64" xml:space="preserve">
<title>Slice 1</title>
<desc>Created with Sketch.</desc>
<g id="Page-1" sketch:type="MSPage">
	<g id="logo2" sketch:type="MSLayerGroup">
		<g id="Group" sketch:type="MSShapeGroup">
			<path id="Shape" fill="#E5E5E5" d="M45.98,4.545H10.934l17.559,38.521L45.98,4.545z"/>
			<path id="Shape_1_" fill="#E5E5E5" d="M55.167,4.545L32.522,51.907l3.882,8.516L61.875,4.545H55.167z"/>
		</g>
	</g>
</g>
<g display="none">
	<path display="inline" fill="#E5E5E5" d="M79.015,54.021L95.221,9.943h8.87l15.965,44.078h-8.358l-4.359-12.447H91.914
		l-4.39,12.447H79.015z M93.958,35.499h11.305c-3.608-11.565-5.462-17.539-5.562-17.919L93.958,35.499z"/>
	<path display="inline" fill="#E5E5E5" d="M148.808,51.42c-2.626,2.154-6.084,3.232-10.373,3.232c-4.29,0-7.742-1.072-10.358-3.218
		c-2.616-2.145-3.924-5.292-3.924-9.44V20.977h7.908v20.716c0,2.465,0.516,4.25,1.549,5.352c1.031,1.103,2.67,1.653,4.915,1.653
		c2.205,0,3.813-0.546,4.826-1.639c1.012-1.092,1.519-2.881,1.519-5.366V20.977h7.877v21.017
		C152.746,46.123,151.434,49.266,148.808,51.42z"/>
	<path display="inline" fill="#E5E5E5" d="M160.963,54.021V20.977h6.614l1.022,5.051c2.165-3.467,5.302-5.202,9.411-5.202
		c0.861,0,1.563,0.041,2.104,0.121l-0.12,6.584c-0.803-0.12-1.634-0.181-2.496-0.181c-2.906,0-5.076,0.772-6.509,2.315
		c-1.434,1.543-2.15,3.688-2.15,6.434v17.92H160.963z"/>
	<path display="inline" fill="#E5E5E5" d="M199.898,54.652c-5.312,0-9.446-1.528-12.402-4.586c-2.957-3.056-4.435-7.28-4.435-12.673
		c0-5.251,1.393-9.431,4.179-12.538s6.585-4.67,11.396-4.69c4.55,0,8.083,1.423,10.599,4.27s3.773,6.625,3.773,11.334
		c0,0.342-0.005,0.893-0.015,1.654c-0.011,0.762-0.016,1.323-0.016,1.684h-21.979c0.08,3.087,0.927,5.478,2.541,7.171
		c1.613,1.694,3.833,2.541,6.659,2.541c3.608,0,7.076-0.942,10.403-2.826l1.112,5.592C208.407,53.63,204.469,54.652,199.898,54.652z
		 M191.149,34.146h14.432c0-2.686-0.611-4.75-1.834-6.194s-2.916-2.165-5.081-2.165c-2.024,0-3.733,0.702-5.126,2.105
		C192.146,29.296,191.35,31.38,191.149,34.146z"/>
	<path display="inline" fill="#E5E5E5" d="M219.442,54.021V20.977h6.614l1.022,5.051c2.165-3.467,5.302-5.202,9.411-5.202
		c0.861,0,1.563,0.041,2.104,0.121l-0.12,6.584c-0.803-0.12-1.634-0.181-2.496-0.181c-2.906,0-5.076,0.772-6.509,2.315
		c-1.434,1.543-2.15,3.688-2.15,6.434v17.92H219.442z"/>
</g>
<text transform="matrix(1 0 0 1 74.665 52.0205)" fill="#E5E5E5" font-family="'Oxygen-Regular'" font-size="60.4816" letter-spacing="6">Aurer</text>
</svg>
