<?xml version="1.0" encoding="utf-8"?>
<!-- Generator: Adobe Illustrator 16.0.0, SVG Export Plug-In . SVG Version: 6.00 Build 0)  -->
<!DOCTYPE svg PUBLIC "-//W3C//DTD SVG 1.1//EN" "http://www.w3.org/Graphics/SVG/1.1/DTD/svg11.dtd">
<svg version="1.1" id="Layer_1" xmlns:sketch="http://www.bohemiancoding.com/sketch/ns"
	 xmlns="http://www.w3.org/2000/svg" xmlns:xlink="http://www.w3.org/1999/xlink" x="0px" y="0px" width="141.842px"
	 height="33.878px" viewBox="56.99 15.545 141.842 33.878" enable-background="new 56.99 15.545 141.842 33.878"
	 xml:space="preserve">
<title>Slice 1</title>
<desc>Created with Sketch.</desc>
<g id="Page-1" sketch:type="MSPage">
	<g id="logo2" sketch:type="MSLayerGroup">
		<g id="Group" sketch:type="MSShapeGroup">
			<path id="Shape" fill="#E5E5E5" d="M78.237,15.545H56.99L67.635,38.9L78.237,15.545z"/>
			<path id="Shape_1_" fill="#E5E5E5" d="M83.808,15.545L70.078,44.26l2.354,5.163l15.443-33.878H83.808z"/>
		</g>
	</g>
</g>
<g display="none">
	<path display="inline" fill="#E5E5E5" d="M79.015,54.021L95.221,9.943h8.87l15.965,44.079h-8.358l-4.359-12.447H91.914
		l-4.39,12.447H79.015z M93.958,35.499h11.305c-3.608-11.565-5.462-17.539-5.562-17.919L93.958,35.499z"/>
	<path display="inline" fill="#E5E5E5" d="M148.809,51.42c-2.627,2.154-6.084,3.232-10.373,3.232c-4.291,0-7.742-1.072-10.358-3.219
		c-2.616-2.145-3.924-5.291-3.924-9.439V20.977h7.908v20.716c0,2.465,0.517,4.25,1.549,5.352c1.031,1.104,2.67,1.653,4.916,1.653
		c2.205,0,3.812-0.546,4.826-1.64c1.012-1.092,1.519-2.881,1.519-5.365V20.977h7.877v21.017
		C152.746,46.123,151.434,49.266,148.809,51.42z"/>
	<path display="inline" fill="#E5E5E5" d="M160.963,54.021V20.977h6.614l1.022,5.051c2.164-3.467,5.301-5.202,9.41-5.202
		c0.861,0,1.563,0.041,2.104,0.121l-0.119,6.584c-0.803-0.12-1.635-0.181-2.496-0.181c-2.906,0-5.076,0.772-6.51,2.315
		s-2.149,3.688-2.149,6.435v17.92h-7.876V54.021z"/>
	<path display="inline" fill="#E5E5E5" d="M199.898,54.652c-5.312,0-9.446-1.528-12.402-4.586c-2.957-3.057-4.436-7.28-4.436-12.674
		c0-5.25,1.394-9.431,4.18-12.538c2.785-3.107,6.585-4.67,11.396-4.69c4.549,0,8.082,1.423,10.598,4.27
		c2.517,2.847,3.773,6.625,3.773,11.334c0,0.342-0.005,0.893-0.015,1.653c-0.011,0.763-0.017,1.323-0.017,1.685h-21.979
		c0.08,3.086,0.927,5.478,2.541,7.17c1.613,1.695,3.833,2.541,6.658,2.541c3.609,0,7.076-0.941,10.404-2.825l1.111,5.592
		C208.407,53.63,204.469,54.652,199.898,54.652z M191.148,34.146h14.433c0-2.687-0.61-4.75-1.834-6.194
		c-1.224-1.444-2.916-2.165-5.081-2.165c-2.023,0-3.732,0.702-5.126,2.105C192.146,29.296,191.35,31.38,191.148,34.146z"/>
	<path display="inline" fill="#E5E5E5" d="M219.441,54.021V20.977h6.615l1.021,5.051c2.165-3.467,5.302-5.202,9.41-5.202
		c0.861,0,1.563,0.041,2.104,0.121l-0.12,6.584c-0.803-0.12-1.634-0.181-2.496-0.181c-2.906,0-5.076,0.772-6.509,2.315
		c-1.434,1.543-2.149,3.688-2.149,6.435v17.92h-7.877V54.021z"/>
</g>
<g enable-background="new    ">
	<path fill="#E5E5E5" d="M115.7,44.329l-3.098-8.397h-10.564l-3.205,8.397h-3.151l10.17-26.536h3.169l9.866,26.536H115.7z
		 M111.6,33.335c-2.519-7.317-3.91-11.429-4.172-12.336l-4.351,12.336H111.6z"/>
	<path fill="#E5E5E5" d="M124.451,37.775V24.687h3.008v13.125c0,0.859,0.122,1.588,0.367,2.185c0.245,0.597,0.597,1.059,1.057,1.387
		c0.459,0.329,0.978,0.564,1.558,0.708c0.578,0.144,1.244,0.215,1.996,0.215c1.552,0,2.76-0.341,3.626-1.021
		c0.865-0.681,1.298-1.838,1.298-3.474V24.687h3.009v13.088c0,1.003-0.144,1.904-0.43,2.703c-0.287,0.801-0.672,1.466-1.155,1.997
		c-0.484,0.531-1.065,0.97-1.746,1.316c-0.68,0.346-1.399,0.597-2.158,0.752c-0.758,0.154-1.572,0.232-2.443,0.232
		c-0.859,0-1.671-0.078-2.435-0.232c-0.764-0.155-1.49-0.409-2.176-0.761c-0.687-0.353-1.277-0.794-1.772-1.325
		c-0.496-0.531-0.886-1.197-1.173-1.997C124.594,39.662,124.451,38.767,124.451,37.775z"/>
	<path fill="#E5E5E5" d="M157.266,24.508c0.537,0,1.026,0.036,1.468,0.108l-0.106,2.757c-0.549-0.096-1.027-0.144-1.433-0.144
		c-1.671,0-3.029,0.582-4.073,1.746c-1.045,1.164-1.566,2.605-1.566,4.324v11.029h-2.99c-0.012-12.056-0.018-18.604-0.018-19.642
		h2.488l0.286,3.527c0.681-1.11,1.546-2.005,2.597-2.686C154.969,24.848,156.084,24.508,157.266,24.508z"/>
	<path fill="#E5E5E5" d="M173.394,44.74c-2.853,0-5.1-0.906-6.74-2.722c-1.642-1.813-2.462-4.297-2.462-7.448
		c0-3.043,0.794-5.511,2.381-7.403c1.588-1.892,3.676-2.856,6.267-2.892c2.436,0,4.366,0.833,5.792,2.498
		c1.427,1.665,2.14,3.888,2.14,6.669c0,0.144-0.003,0.406-0.009,0.788s-0.009,0.656-0.009,0.823h-13.482
		c0.036,2.232,0.611,3.973,1.728,5.219c1.116,1.248,2.617,1.872,4.503,1.872c2.077,0,4.16-0.549,6.249-1.647l0.466,2.417
		C178.223,44.132,175.948,44.74,173.394,44.74z M176.411,28.313c-0.878-1.044-2.08-1.566-3.608-1.566
		c-1.527,0-2.774,0.54-3.742,1.62c-0.966,1.081-1.533,2.558-1.7,4.432h10.366C177.727,30.853,177.288,29.357,176.411,28.313z"/>
	<path fill="#E5E5E5" d="M197.363,24.508c0.538,0,1.027,0.036,1.469,0.108l-0.107,2.757c-0.549-0.096-1.027-0.144-1.432-0.144
		c-1.672,0-3.029,0.582-4.073,1.746c-1.046,1.164-1.567,2.605-1.567,4.324v11.029h-2.99c-0.012-12.056-0.018-18.604-0.018-19.642
		h2.489l0.286,3.527c0.68-1.11,1.546-2.005,2.597-2.686C195.066,24.848,196.182,24.508,197.363,24.508z"/>
</g>
</svg>
