<svg xmlns="http://www.w3.org/2000/svg">
	<defs id="icons">
		<g id="twitter">
			<path d="M55.335,7.299c-1.562,2.281-3.446,4.224-5.653,5.83c0.022,0.322,0.036,0.812,0.036,1.463c0,3.026-0.445,6.043-1.327,9.055
				c-0.889,3.007-2.228,5.898-4.03,8.669c-1.801,2.77-3.946,5.216-6.438,7.345c-2.485,2.128-5.486,3.83-9.002,5.099
				c-3.514,1.269-7.271,1.902-11.271,1.902c-6.303,0-12.07-1.688-17.307-5.06c0.813,0.091,1.721,0.135,2.722,0.135
				c5.234,0,9.898-1.605,13.992-4.815c-2.44-0.043-4.628-0.793-6.56-2.25c-1.933-1.448-3.261-3.307-3.98-5.566
				c0.768,0.123,1.479,0.175,2.13,0.175c1,0,1.989-0.122,2.967-0.384c-2.605-0.532-4.763-1.832-6.473-3.888
				c-1.71-2.057-2.564-4.447-2.564-7.169v-0.137c1.583,0.883,3.28,1.36,5.097,1.428c-1.536-1.025-2.757-2.359-3.662-4.01
				c-0.905-1.649-1.358-3.441-1.363-5.374c0-2.048,0.512-3.943,1.538-5.686c2.812,3.468,6.239,6.24,10.275,8.322
				c4.039,2.08,8.36,3.235,12.963,3.47c-0.186-0.886-0.276-1.744-0.276-2.583c0-3.116,1.097-5.774,3.295-7.97
				c2.198-2.198,4.854-3.297,7.973-3.297c3.258,0,6.002,1.187,8.235,3.559c2.534-0.488,4.924-1.394,7.157-2.719
				c-0.863,2.673-2.513,4.745-4.955,6.213c2.164-0.233,4.326-0.815,6.49-1.747L55.335,7.299z"/>
		</g>
		<g id="instagram">
			<path d="M44.336,43.253V22.159h-4.395c0.432,1.367,0.65,2.787,0.65,4.261c0,2.733-0.695,5.256-2.084,7.566
				c-1.391,2.312-3.278,4.14-5.664,5.482c-2.383,1.347-4.988,2.018-7.812,2.018c-4.274,0-7.93-1.468-10.97-4.41
				c-3.039-2.941-4.557-6.494-4.557-10.662c0-1.475,0.216-2.897,0.65-4.262H5.562v21.092c0,0.568,0.191,1.039,0.571,1.416
				c0.381,0.385,0.853,0.575,1.416,0.575h34.802c0.54,0,1.008-0.19,1.398-0.575c0.391-0.377,0.586-0.848,0.586-1.416V43.253z
				 M35.091,25.904c0-2.691-0.98-4.986-2.945-6.882c-1.962-1.897-4.334-2.848-7.113-2.849c-2.754,0-5.115,0.949-7.078,2.849
				c-1.963,1.9-2.946,4.193-2.946,6.882s0.983,4.984,2.946,6.883c1.963,1.9,4.323,2.849,7.078,2.849c2.779,0,5.151-0.948,7.113-2.849
				C34.11,30.889,35.091,28.592,35.091,25.904z M44.336,14.184V8.812c0-0.609-0.216-1.135-0.651-1.58
				c-0.431-0.445-0.96-0.667-1.595-0.667h-5.659c-0.632,0-1.165,0.223-1.599,0.667c-0.433,0.444-0.647,0.971-0.647,1.58v5.372
				c0,0.63,0.215,1.161,0.647,1.594c0.434,0.434,0.967,0.651,1.599,0.651h5.659c0.635,0,1.164-0.218,1.595-0.651
				C44.12,15.344,44.336,14.814,44.336,14.184z M50,7.414v37.174c0,1.758-0.627,3.268-1.887,4.524C46.855,50.373,45.345,51,43.586,51
				H6.414c-1.758,0-3.268-0.627-4.525-1.888C0.629,47.855,0,46.345,0,44.586V7.414c0-1.758,0.629-3.268,1.889-4.525
				C3.146,1.629,4.654,1,6.414,1h37.174c1.758,0,3.268,0.629,4.525,1.889C49.373,4.146,50,5.654,50,7.414z"/>
		</g>
		<g id="github">
			<path d="M55.998,28.995c0,6.097-1.781,11.583-5.34,16.459c-3.563,4.866-8.166,8.238-13.798,10.115
				c-0.656,0.118-1.139,0.036-1.444-0.255c-0.306-0.297-0.455-0.656-0.455-1.094v-7.691c0-2.356-0.634-4.083-1.896-5.177
				c1.386-0.146,2.63-0.364,3.741-0.656c1.103-0.291,2.246-0.765,3.422-1.421s2.16-1.468,2.953-2.425
				c0.793-0.966,1.436-2.241,1.932-3.827c0.497-1.59,0.743-3.42,0.747-5.488c0-2.939-0.961-5.443-2.879-7.507
				c0.897-2.212,0.802-4.691-0.287-7.438c-0.684-0.217-1.668-0.085-2.953,0.4c-1.294,0.485-2.406,1.021-3.358,1.606l-1.385,0.873
				c-2.265-0.632-4.598-0.948-6.999-0.948c-2.403,0-4.736,0.316-6.999,0.948c-0.39-0.27-0.904-0.598-1.549-0.984
				c-0.645-0.39-1.659-0.856-3.042-1.406c-1.385-0.547-2.431-0.711-3.137-0.489c-1.068,2.747-1.155,5.227-0.256,7.438
				c-1.92,2.063-2.879,4.567-2.879,7.507c0,2.066,0.248,3.889,0.747,5.47c0.496,1.577,1.135,2.853,1.914,3.828
				c0.776,0.966,1.754,1.781,2.934,2.438c1.179,0.656,2.319,1.13,3.425,1.422c1.104,0.296,2.349,0.515,3.736,0.66
				c-0.971,0.875-1.565,2.124-1.786,3.755c-0.511,0.241-1.058,0.424-1.643,0.547c-0.586,0.118-1.276,0.183-2.076,0.183
				c-0.799,0-1.597-0.265-2.39-0.784c-0.793-0.524-1.467-1.285-2.025-2.278c-0.46-0.779-1.048-1.412-1.768-1.896
				c-0.718-0.483-1.319-0.774-1.805-0.875l-0.729-0.104c-0.511,0-0.864,0.055-1.06,0.164c-0.196,0.109-0.256,0.25-0.183,0.419
				c0.075,0.169,0.185,0.342,0.328,0.506c0.144,0.173,0.301,0.319,0.477,0.442l0.255,0.182c0.535,0.242,1.063,0.706,1.588,1.386
				c0.521,0.679,0.904,1.298,1.146,1.854l0.365,0.843c0.316,0.925,0.852,1.672,1.605,2.237c0.752,0.574,1.565,0.934,2.44,1.094
				c0.873,0.159,1.718,0.246,2.533,0.255c0.816,0.014,1.49-0.027,2.025-0.128l0.839-0.141c0,0.925,0.007,2.005,0.018,3.239
				c0.014,1.239,0.021,1.896,0.021,1.973c0,0.438-0.159,0.803-0.476,1.09c-0.319,0.291-0.802,0.373-1.456,0.255
				c-5.637-1.868-10.236-5.24-13.797-10.115C1.78,40.587-0.002,35.102-0.002,29c0-5.08,1.251-9.765,3.757-14.053
				c2.504-4.29,5.9-7.687,10.188-10.19C18.233,2.253,22.918,1,27.998,1s9.765,1.253,14.057,3.757c4.283,2.504,7.683,5.9,10.188,10.19
				c2.502,4.288,3.755,8.973,3.755,14.053V28.995z"/>
		</g>
		<g id="codepen">
			<path d="M6.752,36.529L25.596,49.09V37.873L15.16,30.905L6.752,36.529z M4.812,32.029l6.031-4.03l-6.031-4.03V32.029z M30.406,49.09
				L49.25,36.525l-8.406-5.62l-10.438,6.964V49.09z M28,33.686l8.5-5.687L28,22.312l-8.5,5.687L28,33.686z M15.156,25.091l10.436-6.966
				V6.906L6.748,19.469L15.156,25.091z M45.156,27.999l6.031,4.03v-8.061L45.156,27.999z M40.844,25.091l8.406-5.622L30.406,6.906
				v11.219L40.844,25.091z M56,19.469v17.061c0,0.852-0.355,1.523-1.062,1.999L29.344,55.589c-0.438,0.273-0.885,0.41-1.344,0.41
				s-0.906-0.137-1.344-0.41L1.064,38.528C0.355,38.053,0,37.381,0,36.529V19.469c0-0.854,0.355-1.521,1.064-1.999L26.656,0.407
				C27.094,0.136,27.541-0.001,28-0.001s0.906,0.137,1.344,0.408L54.938,17.47C55.645,17.947,56,18.615,56,19.469z"/>
		</g>
		<g id="heart">
			<path d="M10.002,18.146c-0.193,0-0.357-0.067-0.491-0.201l-6.965-6.72c-0.075-0.059-0.177-0.156-0.308-0.29s-0.337-0.378-0.62-0.732
				C1.335,9.85,1.082,9.486,0.859,9.114C0.636,8.742,0.437,8.292,0.262,7.764c-0.175-0.527-0.263-1.041-0.263-1.54
				c0-1.638,0.472-2.917,1.417-3.84C2.361,1.462,3.667,1,5.334,1c0.461,0,0.931,0.08,1.412,0.24C7.226,1.4,7.672,1.616,8.085,1.887
				C8.497,2.159,8.853,2.414,9.15,2.652S9.731,3.143,9.999,3.41c0.268-0.268,0.551-0.52,0.849-0.758s0.652-0.493,1.065-0.765
				c0.413-0.271,0.859-0.487,1.34-0.647C13.732,1.08,14.203,1,14.665,1c1.666,0,2.972,0.462,3.916,1.384
				c0.945,0.923,1.418,2.203,1.418,3.84c0,1.644-0.853,3.319-2.557,5.023l-6.954,6.697c-0.134,0.134-0.298,0.201-0.49,0.201H10.002z"/>
		</g>
	</defs>
</svg>
