<?xml version="1.0" encoding="UTF-8" standalone="no"?>
<svg width="256px" height="64px" viewBox="0 0 256 64" version="1.1" xmlns="http://www.w3.org/2000/svg" xmlns:xlink="http://www.w3.org/1999/xlink" xmlns:sketch="http://www.bohemiancoding.com/sketch/ns">
    <!-- Generator: Sketch 3.0.3 (7892) - http://www.bohemiancoding.com/sketch -->
    <title>Slice 1</title>
    <desc>Created with Sketch.</desc>
    <defs></defs>
    <g id="Page-1" stroke="none" stroke-width="1" fill="none" fill-rule="evenodd" sketch:type="MSPage">
        <g id="logo2" sketch:type="MSLayerGroup">
            <g id="Group" fill="#E5E5E5" sketch:type="MSShapeGroup">
                <path d="M40.444,0.275 L0.041,0.275 L20.283,44.683 L40.444,0.275 Z" id="Shape"></path>
                <path d="M48.99,0.275 L24.565,54.078 L29.404,64.694 L58.768,0.275 L48.99,0.275 Z" id="Shape"></path>
            </g>
            <path d="M88.888396,43.8827327 L84.4749307,53.907604 L76.5306931,53.907604 L95.9499406,9.836 L103.894178,9.836 L123.313426,53.907604 L115.369188,53.907604 L110.955723,43.8827327 L88.888396,43.8827327 Z M107.929347,37.0103366 L99.9220594,18.8520792 L91.9147723,37.0103366 L107.929347,37.0103366 Z M151.874851,38.5235248 L151.874851,20.3652673 L158.936396,20.3652673 L158.936396,53.907604 L151.874851,53.907604 L151.874851,47.791802 C150.739955,49.8514294 149.174241,51.4696839 147.177663,52.6466139 C145.181086,53.8235438 143.026916,54.412 140.715089,54.412 C136.9321,54.412 133.874229,53.256104 131.541386,50.9442772 C129.208543,48.6324505 128.042139,45.2908601 128.042139,40.9194059 L128.042139,20.3652673 L135.103683,20.3652673 L135.103683,38.7757228 C135.103683,44.9546052 137.667671,48.044 142.795723,48.044 C145.233649,48.044 147.356295,47.2348728 149.163723,45.6165941 C150.971151,43.9983153 151.874851,41.6339825 151.874851,38.5235248 Z M186.741228,26.9854653 C183.252471,26.9854653 180.625435,28.1203451 178.86004,30.3901386 C177.094645,32.6599321 176.21196,35.7072944 176.21196,39.5323168 L176.21196,53.907604 L169.150416,53.907604 L169.150416,20.3652673 L176.21196,20.3652673 L176.21196,27.1115644 C177.346857,25.0099037 178.891555,23.2865678 180.846099,21.941505 C182.800643,20.5964421 184.870748,19.9029045 187.056475,19.8608713 L187.119525,26.9854653 L186.741228,26.9854653 Z M225.390574,40.2258614 L199.098931,40.2258614 C199.267064,42.6637878 200.380927,44.628811 202.440554,46.1209901 C204.500182,47.6131692 206.854007,48.3592475 209.502099,48.3592475 C213.70542,48.3592475 216.899897,47.0352212 219.085624,44.3871287 L223.120792,48.8005941 C219.505936,52.5415501 214.798286,54.412 208.997703,54.412 C204.289983,54.412 200.28638,52.8462863 196.986772,49.7148119 C193.687165,46.5833375 192.037386,42.3800792 192.037386,37.1049109 C192.037386,31.8297426 193.718689,27.6369924 197.081347,24.5265347 C200.444004,21.4160769 204.405575,19.8608713 208.966178,19.8608713 C213.526782,19.8608713 217.404288,21.2374384 220.598812,23.9906139 C223.793336,26.7437893 225.390574,30.53723 225.390574,35.3710495 L225.390574,40.2258614 Z M199.098931,34.677505 L218.32903,34.677505 C218.32903,31.8612796 217.446345,29.6966016 215.68095,28.1834059 C213.915556,26.6702103 211.740369,25.9136238 209.155327,25.9136238 C206.570284,25.9136238 204.247984,26.7017347 202.188356,28.2779802 C200.128729,29.8542257 199.098931,31.9873793 199.098931,34.677505 Z M250.736475,26.9854653 C247.247719,26.9854653 244.620682,28.1203451 242.855287,30.3901386 C241.089892,32.6599321 240.207208,35.7072944 240.207208,39.5323168 L240.207208,53.907604 L233.145663,53.907604 L233.145663,20.3652673 L240.207208,20.3652673 L240.207208,27.1115644 C241.342105,25.0099037 242.886802,23.2865678 244.841347,21.941505 C246.795891,20.5964421 248.865996,19.9029045 251.051723,19.8608713 L251.114772,26.9854653 L250.736475,26.9854653 L250.736475,26.9854653 Z" id="Aurer" fill="#E5E5E5" sketch:type="MSShapeGroup"></path>
        </g>
    </g>
</svg>