<svg version="1.1" id="Layer_1" xmlns="http://www.w3.org/2000/svg" xmlns:xlink="http://www.w3.org/1999/xlink" x="0px" y="0px"
	 width="71.195px" height="21.953px" viewBox="0 0 71.195 21.953" enable-background="new 0 0 71.195 21.953" xml:space="preserve">
<linearGradient id="red_gradient" gradientUnits="userSpaceOnUse" x1="17.5132" y1="21.7427" x2="17.5132" y2="0.0015">
	<stop  offset="0" style="stop-color:#D00A01"/>
	<stop  offset="1" style="stop-color:#DE4941"/>
</linearGradient>
<defs>
	<g id="lastfm">
		<path fill="url(#red_gradient)" d="M35.027,17.859c0,2.146-1.739,3.884-3.884,3.884H3.884C1.738,21.743,0,20.004,0,17.859V3.884
			C0,1.74,1.738,0.001,3.884,0.001h27.258c2.145,0,3.884,1.738,3.884,3.883V17.859z"/>
		<path fill="#FFFFFF" d="M16.365,15.5l-0.772-2.151c0,0-1.255,1.435-3.138,1.435c-1.667,0-2.85-1.487-2.85-3.863
			c0-3.046,1.497-4.135,2.97-4.135c2.125,0,2.801,1.411,3.381,3.221l0.772,2.476c0.772,2.402,2.221,4.332,6.397,4.332
			c2.994,0,5.022-0.939,5.022-3.417c0-2.006-1.111-3.046-3.187-3.539l-1.545-0.35c-1.062-0.246-1.377-0.691-1.377-1.436
			c0-0.839,0.652-1.335,1.715-1.335c1.159,0,1.787,0.446,1.883,1.511l2.414-0.299c-0.193-2.227-1.689-3.143-4.152-3.143
			c-2.173,0-4.298,0.841-4.298,3.539c0,1.685,0.797,2.75,2.8,3.245l1.643,0.394c1.231,0.299,1.641,0.817,1.641,1.537
			c0,0.916-0.869,1.287-2.511,1.287c-2.438,0-3.452-1.312-4.032-3.121l-0.797-2.474c-1.013-3.22-2.632-4.407-5.843-4.407
			c-3.548,0-5.433,2.301-5.433,6.213c0,3.764,1.884,5.794,5.264,5.794C15.061,16.813,16.365,15.5,16.365,15.5L16.365,15.5z"/>
	</g>
	<g id="youtube">
		<path id="lozenge_1_" fill="url(#red_gradient)" d="M70.87,4.71c0,0-0.32-2.155-1.297-3.105c-1.24-1.244-2.631-1.251-3.268-1.324
			c-4.563-0.317-11.409-0.279-11.409-0.279h-0.014c0,0-6.846-0.038-11.41,0.279c-0.638,0.073-2.027,0.08-3.267,1.324
			c-0.978,0.95-1.297,3.105-1.297,3.105s-0.326,0.903-0.326,3.436v2.373c0,2.532,0.326,6.691,0.326,6.691s0.319,2.157,1.297,3.107
			c1.24,1.244,2.87,1.205,3.596,1.336c2.609,0.241,11.088,0.299,11.088,0.299s6.852,0.005,11.416-0.31
			c0.637-0.074,2.028-0.081,3.268-1.325c0.978-0.95,1.297-3.107,1.297-3.107s0.325-2.53,0.325-5.062V9.773
			C71.195,7.243,70.87,4.71,70.87,4.71z"/>

		<path id="Triangle" fill="#FFFFFF" d="M51.379,15.529l8.715-4.516l-8.715-4.548V15.529z"/>
	</g>
</defs>
</svg>