<svg version="1.1" id="Layer_1" xmlns="http://www.w3.org/2000/svg" xmlns:xlink="http://www.w3.org/1999/xlink" x="0px" y="0px"
	 width="300px" height="300px" viewBox="0 0 300 300" enable-background="new 0 0 300 300" xml:space="preserve">
<rect fill="#222222" width="300" height="300"/>
<path fill="#31A0A0" d="M187.382,99.434c-20.144,0.398-43.48,3.889-63.627,10.474c-0.011-0.132,0.076,59.837,0.076,59.837
	c-3.637-0.824-7.747-0.347-12.063,1.622c-8.009,3.641-12.379,10.999-9.756,16.436c2.622,5.443,11.24,6.905,19.249,3.258
	c7.323-3.927,9.678-7.477,9.918-12.612l0.18-51.962c15.877-4.669,32.665-7.438,48.548-8.294v46.455
	c-3.677-0.901-8.55-0.446-12.963,1.555c-8.011,3.648-12.379,11.009-9.757,16.444c2.622,5.442,11.24,6.896,19.253,3.257
	c5.696-2.588,10.252-7.059,11.057-11.38C187.5,174.519,187.304,99.332,187.382,99.434z"/>
</svg>
