<?xml version="1.0" encoding="utf-8"?>
<!-- Generator: Adobe Illustrator 16.0.0, SVG Export Plug-In . SVG Version: 6.00 Build 0)  -->
<!DOCTYPE svg PUBLIC "-//W3C//DTD SVG 1.1//EN" "http://www.w3.org/Graphics/SVG/1.1/DTD/svg11.dtd">
<svg version="1.1" id="Layer_1" xmlns="http://www.w3.org/2000/svg" xmlns:xlink="http://www.w3.org/1999/xlink" x="0px" y="0px"
	 width="350px" height="97.318px" viewBox="0 0 350 97.318" enable-background="new 0 0 350 97.318" xml:space="preserve">
<path display="none" fill="#D8D8D8" d="M235.07,76.081l-4.705,21.237h11.875l4.658-21.237c0,0,2.957-9.208-9.56-13.442
	c8.513-0.793,15.157-3.205,17.542-13.78l2.23-10.762c2.311-12.592-5.397-14.977-17.504-14.977c-12.107,0-23.549,1.014-26.737,15.246
	L200,97.319h11.877l7.382-33.874l10.823-0.005C238.969,63.44,235.07,76.081,235.07,76.081z M245.257,38.097L243.176,48.7
	c-2.367,12.673-8.509,12.595-14.289,12.595h-9.141l5.02-22.929c2.42-13.028,8.697-13.096,14.606-13.096
	S247.217,27.478,245.257,38.097z"/>
<path display="none" fill="#D8D8D8" d="M196.312,23.12l-12.59,58.875c0,0-2.42,13.353-13.77,13.353
	c-10.458,0-6.662-13.084-6.662-13.084L175.88,23.12h-11.694h-7.885l1.817-8.01c0,0,4.097-15.11-17.485-15.11
	c-12.108,0-23.534,0.876-26.723,15.11c-0.024,0.113,11.917,0,11.917,0c2.42-13.029,8.7-13.202,14.609-13.202
	s7.807,2.581,5.845,13.202h-0.041l-1.769,8.01h-8.917c0,0-23.208-0.403-26.961,15.348l-9.692,43.789c0,0-4.635,15.062,17.728,15.062
	h31.473c0,0-7.998-1.948-4.974-13.777l12.77-58.271h7.842l-12.278,56.993c0,0-5.108,15.055,17.95,15.055
	c23.115,0,26.408-15.323,26.408-15.323s10.181-48.445,10.396-49.332c2.144-8.869,8.334-9.544,8.334-9.544L196.312,23.12
	L196.312,23.12z M120.489,38.468c0,0,2.333-13.197,14.708-13.197h8.826c-4.178,18.749-12.706,56.76-12.706,56.76
	s-2.406,13.317-13.88,13.317c-11.073,0-6.67-13.092-6.67-13.092L120.489,38.468z"/>
<path display="none" fill="#D8D8D8" d="M327.551,76.081l-4.705,21.237h11.875l4.659-21.237c0,0,2.958-9.208-9.56-13.442
	c8.512-0.793,15.156-3.205,17.542-13.78l2.23-10.762c2.31-12.592-5.42-14.772-17.525-14.772c-12.108,0-23.529,0.81-26.718,15.042
	l-5.006,22.929h-18.883c-4.064,0-8.072,0.255-11.7,0.925l5.691-24.214c2.419-13.031,8.721-12.735,14.627-12.735h15.173l0.489-2.15
	h-15.478c-12.105,0-23.521,0.649-26.709,14.886l-9.746,43.968c-3.912,13.917,9.596,15.345,21.705,15.345h12.062l0.253-2.15h-12.45
	c-5.909,0-12.653-0.27-9.938-13.216l2.135-9.28c2.927-9.154,8.468-9.251,13.716-9.251l18.584,0.014l-7.396,33.884h11.877
	l7.382-33.874l10.822-0.005C331.449,63.44,327.551,76.081,327.551,76.081z M337.737,38.097L335.656,48.7
	c-2.369,12.673-8.509,12.595-14.289,12.595h-9.142l5.021-22.929c2.419-13.028,8.716-13.134,14.625-13.134
	S339.697,27.478,337.737,38.097z"/>
<g>
	<path fill="#EAEAEA" d="M120.77,63.91l-5.53,12.561h-9.954l24.332-55.221h9.954l24.332,55.221h-9.954l-5.53-12.561H120.77z
		 M144.627,55.299l-10.033-22.752l-10.033,22.752H144.627z"/>
	<path fill="#EAEAEA" d="M173.146,63.831c2.528,2.95,5.952,4.424,10.27,4.424s7.742-1.474,10.27-4.424
		c2.528-2.949,3.793-6.952,3.793-12.009V21.25h9.321v30.968c0,7.953-2.187,14.075-6.557,18.367
		c-4.372,4.293-9.981,6.438-16.827,6.438c-6.848,0-12.456-2.146-16.827-6.438c-4.372-4.292-6.557-10.414-6.557-18.367V21.25h9.322
		v30.572C169.354,56.879,170.618,60.882,173.146,63.831z"/>
	<path fill="#EAEAEA" d="M256.016,39.183c0,9.112-3.977,14.854-11.929,17.223l14.457,20.065h-11.851l-13.192-18.564h-12.245v18.564
		h-9.322V21.25h20.541c8.426,0,14.457,1.422,18.09,4.266C254.199,28.359,256.016,32.916,256.016,39.183z M243.613,47.004
		c1.896-1.632,2.844-4.253,2.844-7.86c0-3.606-0.975-6.083-2.923-7.427c-1.949-1.343-5.425-2.014-10.429-2.014h-11.85v19.75h11.613
		C238.135,49.453,241.717,48.637,243.613,47.004z"/>
	<path fill="#EAEAEA" d="M298.755,21.25v8.769h-29.467v14.615h26.465v8.295h-26.465v14.773h30.416v8.769h-39.737V21.25H298.755z"/>
	<path fill="#EAEAEA" d="M346.233,39.183c0,9.112-3.979,14.854-11.93,17.223l14.457,20.065H336.91l-13.192-18.564h-12.245v18.564
		h-9.322V21.25h20.541c8.426,0,14.457,1.422,18.091,4.266S346.233,32.916,346.233,39.183z M333.83,47.004
		c1.896-1.632,2.844-4.253,2.844-7.86c0-3.606-0.975-6.083-2.923-7.427c-1.949-1.343-5.425-2.014-10.428-2.014h-11.851v19.75h11.612
		C328.353,49.453,331.935,48.637,333.83,47.004z"/>
</g>
<rect x="81.872" y="4.702" transform="matrix(-0.9116 -0.4111 0.4111 -0.9116 137.3234 132.0982)" fill="#E5E5E5" width="1.988" height="93.163"/>
<g id="Group" sketch:type="MSShapeGroup">
	<path id="Shape" d="M42.443,19.275H2.041l20.242,44.409L42.443,19.275z"/>
	<path id="Shape_1_" d="M50.99,19.275L26.565,73.078l4.839,10.615l29.364-64.418H50.99z"/>
</g>
</svg>
