<?xml version="1.0" encoding="utf-8"?>
<!-- Generator: Adobe Illustrator 16.0.0, SVG Export Plug-In . SVG Version: 6.00 Build 0)  -->
<!DOCTYPE svg PUBLIC "-//W3C//DTD SVG 1.1//EN" "http://www.w3.org/Graphics/SVG/1.1/DTD/svg11.dtd">
<svg version="1.1" id="Layer_1" xmlns="http://www.w3.org/2000/svg" xmlns:xlink="http://www.w3.org/1999/xlink" x="0px" y="0px"
	 width="251.497px" height="97.319px" viewBox="0 0 251.497 97.319" enable-background="new 0 0 251.497 97.319"
	 xml:space="preserve">
<path fill-rule="evenodd" clip-rule="evenodd" fill="#D8D8D8" d="M136.567,76.081l-4.705,21.238h11.875l4.659-21.238
	c0,0,2.957-9.208-9.56-13.442c8.512-0.793,15.157-3.205,17.542-13.78l2.231-10.762c2.31-12.592-5.398-14.977-17.504-14.977
	c-12.108,0-23.55,1.014-26.738,15.246l-12.87,58.954h11.877l7.382-33.874l10.823-0.005C140.465,63.44,136.567,76.081,136.567,76.081
	z M146.753,38.097L144.672,48.7c-2.368,12.673-8.509,12.595-14.289,12.595h-9.141l5.02-22.929
	c2.419-13.028,8.697-13.095,14.606-13.095C146.777,25.271,148.713,27.478,146.753,38.097z"/>
<path fill-rule="evenodd" clip-rule="evenodd" fill="#D8D8D8" d="M97.809,23.12L85.219,81.996c0,0-2.42,13.353-13.77,13.353
	c-10.458,0-6.662-13.084-6.662-13.084L77.377,23.12H65.683h-7.885l1.817-8.009c0,0,4.097-15.111-17.485-15.111
	C30.021,0,18.596,0.876,15.407,15.111c-0.024,0.113,11.917,0,11.917,0c2.42-13.03,8.7-13.203,14.609-13.203
	s7.807,2.581,5.845,13.203h-0.041l-1.769,8.009h-8.917c0,0-23.208-0.403-26.961,15.348L0.398,82.256c0,0-4.635,15.063,17.728,15.063
	h31.473c0,0-7.998-1.949-4.974-13.778l12.77-58.271h7.842L52.958,82.264c0,0-5.108,15.055,17.95,15.055
	c23.115,0,26.408-15.324,26.408-15.324s10.181-48.445,10.396-49.332c2.143-8.869,8.334-9.544,8.334-9.544H97.809z M21.986,38.468
	c0,0,2.333-13.197,14.708-13.197h8.826C41.342,44.02,32.814,82.03,32.814,82.03s-2.406,13.318-13.88,13.318
	c-11.073,0-6.67-13.092-6.67-13.092L21.986,38.468z"/>
<path fill-rule="evenodd" clip-rule="evenodd" fill="#D8D8D8" d="M229.047,76.081l-4.705,21.238h11.875l4.659-21.238
	c0,0,2.958-9.208-9.56-13.442c8.512-0.793,15.157-3.205,17.542-13.78l2.231-10.762c2.309-12.592-5.42-14.773-17.526-14.773
	c-12.108,0-23.529,0.81-26.717,15.042l-5.006,22.929h-18.883c-4.064,0-8.073,0.255-11.7,0.925l5.691-24.214
	c2.419-13.031,8.721-12.735,14.627-12.735h15.173l0.489-2.151h-15.477c-12.106,0-23.521,0.65-26.709,14.886l-9.746,43.968
	c-3.912,13.917,9.595,15.345,21.704,15.345h12.062l0.253-2.151h-12.45c-5.909,0-12.654-0.269-9.939-13.216l2.135-9.28
	c2.927-9.154,8.468-9.251,13.716-9.251l18.584,0.014l-7.396,33.884h11.877l7.382-33.874l10.823-0.005
	C232.945,63.44,229.047,76.081,229.047,76.081z M239.233,38.097L237.153,48.7c-2.369,12.673-8.509,12.595-14.289,12.595h-9.141
	l5.02-22.929c2.419-13.028,8.716-13.133,14.625-13.133C239.276,25.233,241.193,27.478,239.233,38.097z"/>
</svg>
