<svg xmlns="http://www.w3.org/2000/svg" width="251.497" height="97.319" viewBox="0 0 251.497 97.319"><path fill-rule="evenodd" clip-rule="evenodd" fill="#D8D8D8" d="M136.567 76.081l-4.705 21.238h11.875l4.659-21.238s2.957-9.208-9.56-13.442c8.512-.793 15.157-3.205 17.542-13.78l2.231-10.762c2.31-12.592-5.398-14.977-17.504-14.977-12.108 0-23.55 1.014-26.738 15.246l-12.87 58.954h11.877l7.382-33.874 10.823-.005c8.886-.001 4.988 12.64 4.988 12.64zm10.186-37.984l-2.081 10.603c-2.368 12.673-8.509 12.595-14.289 12.595h-9.141l5.02-22.929c2.419-13.028 8.697-13.095 14.606-13.095 5.909 0 7.845 2.207 5.885 12.826zM97.809 23.12l-12.59 58.876s-2.42 13.353-13.77 13.353c-10.458 0-6.662-13.084-6.662-13.084l12.59-59.145h-19.579l1.817-8.009s4.097-15.111-17.485-15.111c-12.109 0-23.534.876-26.723 15.111-.024.113 11.917 0 11.917 0 2.42-13.03 8.7-13.203 14.609-13.203s7.807 2.581 5.845 13.203h-.041l-1.769 8.009h-8.917s-23.208-.403-26.961 15.348l-9.692 43.788s-4.635 15.063 17.728 15.063h31.473s-7.998-1.949-4.974-13.778l12.77-58.271h7.842l-12.279 56.994s-5.108 15.055 17.95 15.055c23.115 0 26.408-15.324 26.408-15.324s10.181-48.445 10.396-49.332c2.143-8.869 8.334-9.544 8.334-9.544h-18.237zm-75.823 15.348s2.333-13.197 14.708-13.197h8.826c-4.178 18.749-12.706 56.759-12.706 56.759s-2.406 13.318-13.88 13.318c-11.073 0-6.67-13.092-6.67-13.092l9.722-43.788zM229.047 76.081l-4.705 21.238h11.875l4.659-21.238s2.958-9.208-9.56-13.442c8.512-.793 15.157-3.205 17.542-13.78l2.231-10.762c2.309-12.592-5.42-14.773-17.526-14.773-12.108 0-23.529.81-26.717 15.042l-5.006 22.929h-18.883c-4.064 0-8.073.255-11.7.925l5.691-24.214c2.419-13.031 8.721-12.735 14.627-12.735h15.173l.489-2.151h-15.477c-12.106 0-23.521.65-26.709 14.886l-9.746 43.968c-3.912 13.917 9.595 15.345 21.704 15.345h12.062l.253-2.151h-12.45c-5.909 0-12.654-.269-9.939-13.216l2.135-9.28c2.927-9.154 8.468-9.251 13.716-9.251l18.584.014-7.396 33.884h11.877l7.382-33.874 10.823-.005c8.889 0 4.991 12.641 4.991 12.641zm10.186-37.984l-2.08 10.603c-2.369 12.673-8.509 12.595-14.289 12.595h-9.141l5.02-22.929c2.419-13.028 8.716-13.133 14.625-13.133 5.908 0 7.825 2.245 5.865 12.864z"/></svg>