<?xml version="1.0" encoding="UTF-8" standalone="no"?>
<svg width="21px" height="18px" viewBox="0 0 21 18" version="1.1" xmlns="http://www.w3.org/2000/svg" xmlns:xlink="http://www.w3.org/1999/xlink" xmlns:sketch="http://www.bohemiancoding.com/sketch/ns">
        <path d="M21,5.90914286 C21,2.64535714 18.298875,0 14.96775,0 C13.1965313,0 11.6038125,0.747642857 10.5,1.93821429 C9.3961875,0.747642857 7.80346875,2.85485921e-16 6.03225,2.85485921e-16 C2.70046875,2.85485921e-16 0,2.646 0,5.90914286 C0,7.64421429 0.76321875,9.20442857 1.97859375,10.2857143 L1.96875,10.2857143 L8.53125,16.7142857 C9.1875,17.3571429 9.84375,18 10.5,18 C11.15625,18 11.8125,17.3571429 12.46875,16.7142857 L19.0214062,10.2857143 C20.2367812,9.20442857 21,7.64421429 21,5.90914286 L21,5.90914286 Z M17.25675,8.38221429 L10.612875,14.8962857 C10.57875,14.9297143 10.5406875,14.967 10.5,15.0062143 C10.4599687,14.967 10.4219062,14.9297143 10.387125,14.8962857 L3.74325,8.38221429 C3.02203125,7.74064286 2.625,6.8625 2.625,5.90978571 C2.625,4.06928571 4.15340625,2.57207143 6.03225,2.57207143 C7.0048125,2.57207143 7.90125,2.961 8.5561875,3.6675 L10.5,5.7645 L12.4438125,3.6675 C13.09875,2.961 13.9951875,2.57207143 14.96775,2.57207143 C16.8465937,2.57207143 18.375,4.06928571 18.375,5.90978571 C18.375,6.8625 17.9779687,7.74064286 17.25675,8.38221429 L17.25675,8.38221429 Z"></path>
</svg>