<?xml version="1.0" encoding="utf-8"?>
<!-- Generator: Adobe Illustrator 16.0.0, SVG Export Plug-In . SVG Version: 6.00 Build 0)  -->
<!DOCTYPE svg PUBLIC "-//W3C//DTD SVG 1.1//EN" "http://www.w3.org/Graphics/SVG/1.1/DTD/svg11.dtd">
<svg version="1.1" id="Layer_1" xmlns="http://www.w3.org/2000/svg" xmlns:xlink="http://www.w3.org/1999/xlink" x="0px" y="0px"
	 width="350px" height="97.319px" viewBox="0 0 350 97.319" enable-background="new 0 0 350 97.319" xml:space="preserve">
<path display="none" fill-rule="evenodd" clip-rule="evenodd" fill="#D8D8D8" d="M235.07,76.081l-4.705,21.238h11.875l4.659-21.238
	c0,0,2.957-9.208-9.56-13.442c8.512-0.793,15.157-3.205,17.542-13.78l2.231-10.762c2.31-12.592-5.398-14.977-17.504-14.977
	c-12.108,0-23.55,1.014-26.738,15.246L200,97.319h11.877l7.382-33.874l10.823-0.005C238.969,63.44,235.07,76.081,235.07,76.081z
	 M245.257,38.097L243.176,48.7c-2.368,12.673-8.509,12.595-14.289,12.595h-9.141l5.02-22.929
	c2.419-13.028,8.697-13.095,14.606-13.095C245.281,25.271,247.217,27.478,245.257,38.097z"/>
<path display="none" fill-rule="evenodd" clip-rule="evenodd" fill="#D8D8D8" d="M196.312,23.12l-12.589,58.875
	c0,0-2.42,13.353-13.77,13.353c-10.458,0-6.662-13.084-6.662-13.084L175.88,23.12h-11.694h-7.885l1.817-8.009
	c0,0,4.097-15.111-17.485-15.111c-12.108,0-23.534,0.876-26.723,15.111c-0.024,0.113,11.917,0,11.917,0
	c2.42-13.03,8.7-13.203,14.609-13.203s7.807,2.581,5.845,13.203h-0.041l-1.769,8.009h-8.917c0,0-23.208-0.403-26.961,15.348
	l-9.692,43.789c0,0-4.635,15.063,17.728,15.063h31.473c0,0-7.998-1.949-4.974-13.778l12.77-58.271h7.842l-12.278,56.993
	c0,0-5.108,15.055,17.95,15.055c23.115,0,26.408-15.324,26.408-15.324s10.181-48.445,10.396-49.332
	c2.143-8.869,8.334-9.544,8.334-9.544H196.312z M120.489,38.468c0,0,2.333-13.197,14.708-13.197h8.826
	c-4.178,18.749-12.706,56.759-12.706,56.759s-2.406,13.318-13.88,13.318c-11.073,0-6.67-13.092-6.67-13.092L120.489,38.468z"/>
<path display="none" fill-rule="evenodd" clip-rule="evenodd" fill="#D8D8D8" d="M327.551,76.081l-4.705,21.238h11.875l4.659-21.238
	c0,0,2.958-9.208-9.56-13.442c8.512-0.793,15.157-3.205,17.542-13.78l2.231-10.762c2.309-12.592-5.42-14.773-17.526-14.773
	c-12.108,0-23.529,0.81-26.717,15.042l-5.006,22.929h-18.883c-4.064,0-8.073,0.255-11.7,0.925l5.691-24.214
	c2.419-13.031,8.721-12.735,14.627-12.735h15.173l0.489-2.151h-15.477c-12.106,0-23.521,0.65-26.709,14.886l-9.746,43.968
	c-3.912,13.917,9.595,15.345,21.704,15.345h12.062l0.253-2.151h-12.45c-5.909,0-12.654-0.269-9.939-13.216l2.135-9.28
	c2.927-9.154,8.468-9.251,13.716-9.251l18.584,0.014l-7.396,33.884h11.877l7.382-33.874l10.823-0.005
	C331.449,63.44,327.551,76.081,327.551,76.081z M337.737,38.097L335.656,48.7c-2.369,12.673-8.509,12.595-14.289,12.595h-9.141
	l5.02-22.929c2.419-13.028,8.716-13.133,14.625-13.133C337.78,25.233,339.697,27.478,337.737,38.097z"/>
<polygon fill-rule="evenodd" clip-rule="evenodd" fill="#F54121" points="60.768,19.275 31.404,83.694 2.041,19.275 "/>
<g>
	<path fill="#EAEAEA" d="M120.77,63.91l-5.53,12.561h-9.954l24.332-55.221h9.954l24.332,55.221h-9.954l-5.53-12.561H120.77z
		 M144.627,55.299l-10.033-22.752l-10.033,22.752H144.627z"/>
	<path fill="#EAEAEA" d="M173.146,63.831c2.528,2.95,5.951,4.424,10.27,4.424c4.318,0,7.742-1.474,10.27-4.424
		c2.528-2.949,3.792-6.952,3.792-12.009V21.25h9.322v30.968c0,7.953-2.187,14.075-6.557,18.367
		c-4.372,4.293-9.981,6.438-16.827,6.438c-6.847,0-12.456-2.146-16.827-6.438c-4.372-4.292-6.557-10.414-6.557-18.367V21.25h9.322
		v30.572C169.354,56.879,170.618,60.882,173.146,63.831z"/>
	<path fill="#EAEAEA" d="M256.016,39.183c0,9.112-3.977,14.853-11.929,17.222l14.457,20.066h-11.85l-13.193-18.565h-12.245v18.565
		h-9.322V21.25h20.54c8.426,0,14.457,1.422,18.091,4.266C254.199,28.359,256.016,32.916,256.016,39.183z M243.613,47.004
		c1.896-1.632,2.844-4.253,2.844-7.86s-0.975-6.083-2.923-7.427c-1.949-1.343-5.425-2.014-10.428-2.014h-11.85v19.75h11.613
		C238.135,49.453,241.717,48.637,243.613,47.004z"/>
	<path fill="#EAEAEA" d="M298.755,21.25v8.769h-29.467v14.615h26.465v8.295h-26.465v14.773h30.416v8.769h-39.737V21.25H298.755z"/>
	<path fill="#EAEAEA" d="M346.233,39.183c0,9.112-3.978,14.853-11.929,17.222l14.457,20.066h-11.851l-13.192-18.565h-12.245v18.565
		h-9.322V21.25h20.54c8.426,0,14.457,1.422,18.091,4.266S346.233,32.916,346.233,39.183z M333.83,47.004
		c1.896-1.632,2.844-4.253,2.844-7.86s-0.975-6.083-2.923-7.427c-1.949-1.343-5.425-2.014-10.428-2.014h-11.85v19.75h11.612
		C328.353,49.453,331.935,48.637,333.83,47.004z"/>
</g>
<rect x="81.876" y="4.701" transform="matrix(0.9116 0.411 -0.411 0.9116 28.3996 -29.5269)" fill-rule="evenodd" clip-rule="evenodd" fill="#E5E5E5" width="1.988" height="93.166"/>
</svg>
