<svg xmlns="http://www.w3.org/2000/svg" width="350" height="97.319" viewBox="0 0 350 97.319"><path fill-rule="evenodd" clip-rule="evenodd" fill="#F54121" d="M60.768 19.275l-29.364 64.42L2.04 19.274z"/><g fill="#EAEAEA"><path d="M120.77 63.91l-5.53 12.56h-9.954l24.332-55.22h9.954l24.332 55.22h-9.954l-5.53-12.56h-27.65zm23.857-8.61l-10.033-22.753L124.56 55.3h20.067zM173.146 63.83c2.528 2.95 5.95 4.425 10.27 4.425 4.318 0 7.742-1.474 10.27-4.424 2.528-2.948 3.792-6.95 3.792-12.008V21.25h9.322v30.968c0 7.953-2.187 14.075-6.557 18.367-4.372 4.293-9.98 6.438-16.827 6.438-6.847 0-12.456-2.146-16.827-6.438-4.373-4.292-6.558-10.414-6.558-18.367V21.25h9.322v30.572c0 5.057 1.264 9.06 3.792 12.01zM256.016 39.183c0 9.112-3.977 14.853-11.93 17.222l14.458 20.066h-11.85L233.5 57.907h-12.244V76.47h-9.322V21.25h20.54c8.426 0 14.457 1.422 18.09 4.266 3.635 2.843 5.452 7.4 5.452 13.667zm-12.403 7.82c1.896-1.63 2.844-4.252 2.844-7.86s-.975-6.082-2.923-7.426c-1.95-1.343-5.425-2.014-10.428-2.014h-11.85v19.75h11.613c5.265 0 8.847-.816 10.743-2.45zM298.755 21.25v8.77h-29.467v14.614h26.465v8.295h-26.465V67.7h30.416v8.77h-39.737V21.25h38.788zM346.233 39.183c0 9.112-3.978 14.853-11.93 17.222l14.458 20.066h-11.85l-13.192-18.564h-12.245V76.47h-9.322V21.25h20.54c8.427 0 14.458 1.422 18.092 4.266s5.45 7.4 5.45 13.667zm-12.403 7.82c1.896-1.63 2.844-4.252 2.844-7.86s-.975-6.082-2.923-7.426c-1.948-1.343-5.424-2.014-10.427-2.014h-11.85v19.75h11.612c5.268 0 8.85-.816 10.745-2.45z"/></g><path fill-rule="evenodd" clip-rule="evenodd" fill="#E5E5E5" d="M101.106 8.41l1.812.817-38.29 84.93-1.814-.817z"/></svg>